# xmcd
#
# Track frame offsets:
#	182
#	12732
#	25077
#	36470
#	51040
#	64660
#	80687
#	91295
#	104077
#	119837
#	138625
#	150730
#	161937
#	174372
#	188085
#	199182
#	209860
#	221872
#
# Disc length: 3125
#
# Revision: 1
# Processed by: cddbd v1.5.1PL0 Copyright (c) Steve Scherf et al.
# Submitted via: EasyCDDAExtractor 4.5.0.2
# Normalized: r0:TDELIM( - )
#
DISCID=1c0c3312
DTITLE=Black and Blues Vol 2 - Black and Blues Cd 2
DYEAR=1991
DGENRE=blues
TTITLE0=John Lee Hooker - Leave My Wife Alone
TTITLE1=Little Walter - Juke
TTITLE2=Sonny Boy Williamson - Bring It On Home
TTITLE3=Muddy Waters - Good Morning School Girl
TTITLE4=Washboard Sam - By  Myself
TTITLE5=Howlin' wolf - Tryin' To Forget You
TTITLE6=Buddy Guy - I Got My Eye On You
TTITLE7=Big Bill Broonzy - Little City Woman
TTITLE8=Jimmy Reed - Big Legged Woman
TTITLE9=Lightnin' Hopkins - Good Time
TTITLE10=Memphis Slim - Trouble Trouble
TTITLE11=B.B King - Tickle Britches
TTITLE12=Lowell Fulsion - Swinging Party
TTITLE13=Koko Taylor - What Kind Of Man Is This
TTITLE14=Bo Diddley - Bring It To Jerome
TTITLE15=Otis Rush - I'm Satisfied
TTITLE16=JB Lenoir - When I'm Drinking
TTITLE17=Jimmy Rogers - I Can't Believe
EXTD=
EXTT0=
EXTT1=
EXTT2=
EXTT3=
EXTT4=
EXTT5=
EXTT6=
EXTT7=
EXTT8=
EXTT9=
EXTT10=
EXTT11=
EXTT12=
EXTT13=
EXTT14=
EXTT15=
EXTT16=
EXTT17=
PLAYORDER=
